<?xml version="1.0" standalone="no"?>
<svg viewBox="0 0 200 200" xmlns="http://www.w3.org/2000/svg">
  <path fill="#C2E5DD" d="M14.8,-24.6C20.9,-22.1,28.9,-21.7,33.8,-17.9C38.8,-14.2,40.8,-7.1,42.9,1.2C45,9.5,47.3,19.1,47,30.8C46.6,42.6,43.7,56.6,35.4,68.4C27.2,80.1,13.6,89.7,4.2,82.4C-5.2,75.2,-10.5,51.2,-24.2,42.6C-38,34,-60.2,40.8,-74,36.3C-87.8,31.7,-93.1,15.9,-88.3,2.8C-83.5,-10.3,-68.6,-20.7,-55.9,-27.1C-43.2,-33.5,-32.7,-35.9,-23.7,-36.9C-14.8,-37.8,-7.4,-37.2,-1.5,-34.6C4.3,-31.9,8.7,-27.2,14.8,-24.6Z" transform="translate(100 100)" />
</svg>
